
<svg width="18px" height="22px" viewBox="0 0 18 22" version="1.1" xmlns="http://www.w3.org/2000/svg" xmlns:xlink="http://www.w3.org/1999/xlink">
    <g  stroke="none" stroke-width="1" >
        <g  transform="translate(-33.000000, -353.000000)">
                <g transform="translate(30.000000, 352.000000)">
                        <rect  opacity="0" x="0" y="0" width="24" height="24"></rect>
                        <path d="M10.0246443,11.9756062 L15.8703158,8.60060618 C16.2290352,8.3934994 16.687728,8.51640576 16.8948348,8.87512523 C17.1019416,9.2338447 16.9790352,9.6925375 16.6203158,9.89964428 L10.1251252,13.6496443 C9.76640576,13.8567511 9.30771296,13.7338447 9.10060618,13.3751252 L7.35060618,10.3440363 C7.1434994,9.98531685 7.26640576,9.52662405 7.62512523,9.31951727 C7.9838447,9.11241048 8.4425375,9.23531685 8.64964428,9.59403632 L10.0246443,11.9756062 Z M7.75,16 L16.25,16 C16.6642136,16 17,16.3357864 17,16.75 C17,17.1642136 16.6642136,17.5 16.25,17.5 L7.75,17.5 C7.33578644,17.5 7,17.1642136 7,16.75 C7,16.3357864 7.33578644,16 7.75,16 Z M7,2 L7,3.5 L5.5,3.5 C4.94771525,3.5 4.5,3.94771525 4.5,4.5 L4.5,20.5 C4.5,21.0522847 4.94771525,21.5 5.5,21.5 L18.5,21.5 C19.0522847,21.5 19.5,21.0522847 19.5,20.5 L19.5,4.5 C19.5,3.94771525 19.0522847,3.5 18.5,3.5 L17,3.5 L17,2 L19,2 C20.1045695,2 21,2.8954305 21,4 L21,21 C21,22.1045695 20.1045695,23 19,23 L5,23 C3.8954305,23 3,22.1045695 3,21 L3,4 C3,2.8954305 3.8954305,2 5,2 L7,2 Z M14.5,2.5 L9.5,2.5 L9.5,3.5 L14.5,3.5 L14.5,2.5 Z M14.9473684,1 C15.5280702,1 16,1.40603774 16,1.90566038 L16,4.09433962 C16,4.59396226 15.5280702,5 14.9473684,5 L9.05263158,5 C8.47192982,5 8,4.59396226 8,4.09433962 L8,1.90566038 C8,1.40603774 8.47192982,1 9.05263158,1 L14.9473684,1 Z" id="形状结合" ></path>
                </g>
        </g>
    </g>
</svg>
