
<svg width="24px" height="20px" viewBox="0 -2 24 24" version="1.1" xmlns="http://www.w3.org/2000/svg" xmlns:xlink="http://www.w3.org/1999/xlink">
<path   d="M16.7999886,20 L7.19989777,20 C6.53730156,20 6,20.4475608 6,20.999954 C6,21.5523472 6.53718797,22 7.19989777,22 L16.7999886,22 C17.4629256,22 18,21.5523472 18,20.999954 C18,20.4475608 17.4629256,20 16.7999886,20 L16.7999886,20 Z M18.4284845,2 L5.5715155,2 C4.15133403,2 3,3.10231653 3,4.46165164 L3,15.5382352 C3,16.8979098 4.15133403,18 5.5715155,18 L18.4284845,18 C19.848666,18 21,16.8979098 21,15.5382352 L21,4.46165164 C21,3.10231653 19.848666,2 18.4284845,2 Z M16.0909755,15 L7.90902441,15 C7.40698409,15 7,14.5522847 7,14 C7,13.4477152 7.40698409,13 7.90902441,13 L16.0909755,13 C16.3320723,12.9999695 16.5633023,13.1053166 16.7337835,13.2928595 C16.9042646,13.4804025 17,13.7347741 17,14 C17,14.2652445 16.9043379,14.5196516 16.7338447,14.7072078 C16.5633516,14.894764 16.3320893,15.0000915 16.0909755,15 Z M8.49994253,6 C9.32848002,6 10,6.67174988 10,7.50005747 C10,8.32836507 9.32848002,9 8.49994253,9 C7.67151998,9 7,8.32859497 7,7.50005747 C7,6.67174988 7.67151998,6 8.49994253,6 Z M15.5001149,9 C14.6717241,9 14,8.32859497 14,7.50005747 C14,6.67163493 14.6717241,6 15.5001149,6 C16.3286207,6 17,6.67174988 17,7.50005747 C17,8.32836507 16.3286207,9 15.5001149,9 Z" ></path>
</svg>
