
<svg width="22px" height="20px" viewBox="0 0 22 20" version="1.1" xmlns="http://www.w3.org/2000/svg" xmlns:xlink="http://www.w3.org/1999/xlink"><path d="M9.99999015,14.2222222 L14.0000098,14.2222222 C14.1104668,14.2222222 14.2000098,14.3117653 14.2000098,14.4222222 L14.2000098,21.8 C14.2000098,21.9104569 14.2895529,22 14.4000098,22 L19.5000098,22 C19.6104668,22 19.7000098,21.9104569 19.7000098,21.8 L19.7000098,13.3111111 C19.7000098,13.2006542 19.7895529,13.1111111 19.9000098,13.1111111 L22.5205679,13.1111111 C22.6310249,13.1111111 22.7205679,13.0215681 22.7205679,12.9111111 C22.7205679,12.858416 22.6997715,12.80785 22.6626982,12.7704022 L12.1421302,2.14356588 C12.0644188,2.06506953 11.9377874,2.06443319 11.8592911,2.14214458 C11.8588149,2.14261596 11.8583412,2.14308974 11.8578698,2.14356588 L1.33730183,12.7704022 C1.25959044,12.8488985 1.26022678,12.9755299 1.33872313,13.0532413 C1.37617098,13.0903147 1.42673693,13.1111111 1.47943205,13.1111111 L4.09999015,13.1111111 C4.2104471,13.1111111 4.29999015,13.2006542 4.29999015,13.3111111 L4.29999015,21.8 C4.29999015,21.9104569 4.3895332,22 4.49999015,22 L9.59999015,22 C9.7104471,22 9.79999015,21.9104569 9.79999015,21.8 L9.79999015,14.4222222 C9.79999015,14.3117653 9.8895332,14.2222222 9.99999015,14.2222222 Z"></path></svg>
