<svg t="1573024409776" class="icon" viewBox="0 0 1280 1024" version="1.1" xmlns="http://www.w3.org/2000/svg" p-id="8889" width="40" height="32" xmlns:xlink="http://www.w3.org/1999/xlink"><defs><style type="text/css"></style></defs><path d="M320.6 407.6h-1s-8.6 41.8-15.6 66l-22 74.6h75.8l-21.4-74.6c-7.2-24.2-15.8-66-15.8-66zM1232 192H48c-26.6 0-48 21.4-48 48v544c0 26.6 21.4 48 48 48h1184c26.6 0 48-21.4 48-48V240c0-26.6-21.4-48-48-48zM466.4 704h-45.2a24 24 0 0 1-23-17.2l-18.6-63.4h-119.8l-18.2 63.2c-3 10.2-12.4 17.4-23 17.4H173.6c-16.4 0-28-16.2-22.8-31.8l114.2-336c3.4-9.8 12.4-16.2 22.8-16.2h64.4c10.2 0 19.4 6.6 22.8 16.2l114.2 336c5.2 15.6-6.4 31.8-22.8 31.8zM1200 752H640V272h560zM744 456h221.6c-12.6 25.6-30.2 51.8-51.8 77-13.2-15.6-25.6-31.6-36.6-48-7-10.6-21.2-13.8-32.2-7.2l-27.4 16.4c-11.8 7-15.2 22.6-7.6 34 13 19.4 28.8 40.2 47 61.2-18 15.4-37.2 29.6-57.4 42.4-10.8 6.8-14.2 21-7.8 32l15.8 27.8c6.8 11.8 22 15.8 33.6 8.4 25-15.8 49.2-34 72-53.6 21.4 19.2 44.6 37.2 69.2 53.2 11.6 7.4 27.2 3.8 34-8.2l16-27.8c6.2-11 3-25-7.6-32-18.4-12-36.8-26.2-54.4-41.8 3-3.4 5.8-6.6 8.6-10 34.2-41.2 59.2-83.4 73.6-124H1080c13.2 0 24-10.8 24-24v-32c0-13.2-10.8-24-24-24h-128v-32c0-13.2-10.8-24-24-24h-32c-13.2 0-24 10.8-24 24v32h-128c-13.2 0-24 10.8-24 24v32c0 13.4 10.8 24.2 24 24.2z" p-id="8890" fill="#6874D0"></path></svg>
