<svg width="18px" height="22px" viewBox="0 0 18 22" version="1.1" xmlns="http://www.w3.org/2000/svg" xmlns:xlink="http://www.w3.org/1999/xlink">
    <g id="1-首页" stroke="none" stroke-width="1" >
        <g id="1-0-1-首页" transform="translate(-33.000000, -407.000000)">
                <g id="Icon/Result/Inactive" transform="translate(30.000000, 406.000000)">
                        <rect id="矩形" fill="#000000" fill-rule="nonzero" opacity="0" x="0" y="0" width="24" height="24"></rect>
                        <path d="M7.75,16 L16.25,16 C16.6642136,16 17,16.3357864 17,16.75 C17,17.1642136 16.6642136,17.5 16.25,17.5 L7.75,17.5 C7.33578644,17.5 7,17.1642136 7,16.75 C7,16.3357864 7.33578644,16 7.75,16 Z M7.75,12 L16.25,12 C16.6642136,12 17,12.3357864 17,12.75 C17,13.1642136 16.6642136,13.5 16.25,13.5 L7.75,13.5 C7.33578644,13.5 7,13.1642136 7,12.75 C7,12.3357864 7.33578644,12 7.75,12 Z M7.75,8 L16.25,8 C16.6642136,8 17,8.33578644 17,8.75 C17,9.16421356 16.6642136,9.5 16.25,9.5 L7.75,9.5 C7.33578644,9.5 7,9.16421356 7,8.75 C7,8.33578644 7.33578644,8 7.75,8 Z M7,3 L7,4.5 L5.5,4.5 C4.94771525,4.5 4.5,4.94771525 4.5,5.5 L4.5,20.5 C4.5,21.0522847 4.94771525,21.5 5.5,21.5 L18.5,21.5 C19.0522847,21.5 19.5,21.0522847 19.5,20.5 L19.5,5.5 C19.5,4.94771525 19.0522847,4.5 18.5,4.5 L17,4.5 L17,3 L19,3 C20.1045695,3 21,3.8954305 21,5 L21,21 C21,22.1045695 20.1045695,23 19,23 L5,23 C3.8954305,23 3,22.1045695 3,21 L3,5 C3,3.8954305 3.8954305,3 5,3 L7,3 Z M10.2675644,2 C10.6133738,1.40219863 11.2597176,1 12,1 C12.7402824,1 13.3866262,1.40219863 13.7324356,2 L15.5,2 C15.7761424,2 16,2.22385763 16,2.5 L16,4.5 C16,4.77614237 15.7761424,5 15.5,5 L8.5,5 C8.22385763,5 8,4.77614237 8,4.5 L8,2.5 C8,2.22385763 8.22385763,2 8.5,2 L10.2675644,2 Z M12,4 C12.5522847,4 13,3.55228475 13,3 C13,2.44771525 12.5522847,2 12,2 C11.4477153,2 11,2.44771525 11,3 C11,3.55228475 11.4477153,4 12,4 Z" id="形状结合" ></path>
                </g>
        </g>
    </g>
</svg>
