
<svg width="20px" height="20px" viewBox="0 0 20 20" version="1.1" xmlns="http://www.w3.org/2000/svg" xmlns:xlink="http://www.w3.org/1999/xlink"><path d="M11.9666533,10.2781718 C11.5637514,10.5627064 11.1922312,10.8887212 10.8583088,11.25 L6.75,11.25 C6.33578644,11.25 6,10.9142136 6,10.5 C6,10.0857864 6.33578644,9.75 6.75,9.75 L11.25,9.75 C11.5869889,9.75 11.872068,9.972252 11.9666533,10.2781718 Z M9.36948384,13.75 C9.20703683,14.2288371 9.09500544,14.7309444 9.03971172,15.25 L6.75,15.25 C6.33578644,15.25 6,14.9142136 6,14.5 C6,14.0857864 6.33578644,13.75 6.75,13.75 L9.36948384,13.75 Z M20,10.2547667 C19.5376581,9.93226033 19.0345668,9.66413541 18.5,9.45966579 L18.5,4.5 C18.5,3.94771525 18.0522847,3.5 17.5,3.5 L4.5,3.5 C3.94771525,3.5 3.5,3.94771525 3.5,4.5 L3.5,19.5 C3.5,20.0522847 3.94771525,20.5 4.5,20.5 L10.6379764,20.5 C11.134805,21.0913742 11.7276594,21.5993794 12.392524,22 L4,22 C2.8954305,22 2,21.1045695 2,20 L2,4 C2,2.8954305 2.8954305,2 4,2 L18,2 C19.1045695,2 20,2.8954305 20,4 L20,10.2547667 Z M6.75,5.75 L13.25,5.75 C13.6642136,5.75 14,6.08578644 14,6.5 C14,6.91421356 13.6642136,7.25 13.25,7.25 L6.75,7.25 C6.33578644,7.25 6,6.91421356 6,6.5 C6,6.08578644 6.33578644,5.75 6.75,5.75 Z M16,10 C19.3135937,10 22,12.6864063 22,16 C22,19.3135937 19.3135937,22 16,22 C12.6864063,22 10,19.3135937 10,16 C10,12.6864063 12.6864063,10 16,10 Z M16.8567654,15.8928682 C17.5549084,15.536511 18,14.7787125 18,13.9464341 C18,13.1141557 17.5549084,12.3563572 16.8567654,12 L16.8567654,13.5384357 C16.855851,13.8778258 16.6007568,14.1527459 16.2857273,14.1538548 L15.7144809,14.1538548 C15.3993701,14.152869 15.1441496,13.8779131 15.1432346,13.5384357 L15.1432346,12 C14.4450916,12.3563572 14,13.1141557 14,13.9464341 C14,14.7787125 14.4450916,15.536511 15.1432346,15.8928682 L15.1432346,19.3845809 C15.1441496,19.7240583 15.3993701,19.9990142 15.7144809,20 L16.2855191,20 C16.6006299,19.9990142 16.8558504,19.7240583 16.8567654,19.3845809 L16.8567654,15.8928682 Z"></path></svg>