<?xml version="1.0" encoding="UTF-8"?>
<svg width="18px" height="22px" viewBox="0 0 18 22" version="1.1" xmlns="http://www.w3.org/2000/svg" xmlns:xlink="http://www.w3.org/1999/xlink">
    <!-- Generator: Sketch 55.2 (78181) - https://sketchapp.com -->
    <title>Icon/play/Inactive</title>
    <desc>Created with Sketch.</desc>
    <g id="1-首页" stroke="none" stroke-width="1" fill="none" fill-rule="evenodd">
        <g id="1-0-1-首页" transform="translate(-33.000000, -299.000000)">
            <g id="Left-Nav">
                <g id="Icon/play/Inactive" transform="translate(30.000000, 298.000000)">
                    <g>
                        <rect id="矩形" fill="#000000" fill-rule="nonzero" opacity="0" x="0" y="0" width="24" height="24"></rect>
                        <path d="M10.75,11.75 L15.25,11.75 C15.6642136,11.75 16,12.0857864 16,12.5 C16,12.9142136 15.6642136,13.25 15.25,13.25 L10.75,13.25 C10.3357864,13.25 10,12.9142136 10,12.5 C10,12.0857864 10.3357864,11.75 10.75,11.75 Z M10.75,15.75 L17.25,15.75 C17.6642136,15.75 18,16.0857864 18,16.5 C18,16.9142136 17.6642136,17.25 17.25,17.25 L10.75,17.25 C10.3357864,17.25 10,16.9142136 10,16.5 C10,16.0857864 10.3357864,15.75 10.75,15.75 Z M10.75,7.75 L17.25,7.75 C17.6642136,7.75 18,8.08578644 18,8.5 C18,8.91421356 17.6642136,9.25 17.25,9.25 L10.75,9.25 C10.3357864,9.25 10,8.91421356 10,8.5 C10,8.08578644 10.3357864,7.75 10.75,7.75 Z M7.5,14 C6.67333333,14 6,13.3266667 6,12.5 C6,11.6733333 6.67333333,11 7.5,11 C8.32666667,11 9,11.6733333 9,12.5 C9,13.3266667 8.32666667,14 7.5,14 Z M7.5,12 C7.224,12 7,12.224 7,12.5 C7,12.776 7.224,13 7.5,13 C7.776,13 8,12.776 8,12.5 C8,12.224 7.776,12 7.5,12 Z M7.5,10 C6.67333333,10 6,9.32666667 6,8.5 C6,7.67333333 6.67333333,7 7.5,7 C8.32666667,7 9,7.67333333 9,8.5 C9,9.32666667 8.32666667,10 7.5,10 Z M7.5,8 C7.224,8 7,8.224 7,8.5 C7,8.776 7.224,9 7.5,9 C7.776,9 8,8.776 8,8.5 C8,8.224 7.776,8 7.5,8 Z M7.5,18 C6.67333333,18 6,17.3266667 6,16.5 C6,15.6733333 6.67333333,15 7.5,15 C8.32666667,15 9,15.6733333 9,16.5 C9,17.3266667 8.32666667,18 7.5,18 Z M7.5,16 C7.224,16 7,16.224 7,16.5 C7,16.776 7.224,17 7.5,17 C7.776,17 8,16.776 8,16.5 C8,16.224 7.776,16 7.5,16 Z M7,2 L7,3.5 L5.5,3.5 C4.94771525,3.5 4.5,3.94771525 4.5,4.5 L4.5,20.5 C4.5,21.0522847 4.94771525,21.5 5.5,21.5 L18.5,21.5 C19.0522847,21.5 19.5,21.0522847 19.5,20.5 L19.5,4.5 C19.5,3.94771525 19.0522847,3.5 18.5,3.5 L17,3.5 L17,2 L19,2 C20.1045695,2 21,2.8954305 21,4 L21,21 C21,22.1045695 20.1045695,23 19,23 L5,23 C3.8954305,23 3,22.1045695 3,21 L3,4 C3,2.8954305 3.8954305,2 5,2 L7,2 Z M14.5,2.5 L9.5,2.5 L9.5,3.5 L14.5,3.5 L14.5,2.5 Z M14.9473684,1 C15.5280702,1 16,1.40603774 16,1.90566038 L16,4.09433962 C16,4.59396226 15.5280702,5 14.9473684,5 L9.05263158,5 C8.47192982,5 8,4.59396226 8,4.09433962 L8,1.90566038 C8,1.40603774 8.47192982,1 9.05263158,1 L14.9473684,1 Z" id="形状结合" fill="#B8C2DF" fill-rule="nonzero"></path>
                    </g>
                </g>
            </g>
        </g>
    </g>
</svg>