<?xml version="1.0" standalone="no"?><!DOCTYPE svg PUBLIC "-//W3C//DTD SVG 1.1//EN" "http://www.w3.org/Graphics/SVG/1.1/DTD/svg11.dtd"><svg t="1572335889982" class="icon" viewBox="0 0 1024 1024" version="1.1" xmlns="http://www.w3.org/2000/svg" p-id="1321" width="32" height="32" xmlns:xlink="http://www.w3.org/1999/xlink"><defs><style type="text/css"></style></defs><path d="M1003.657143 482.514286C895.314286 254.285714 731.542857 139.428571 512 139.428571c-219.657143 0-383.314286 114.857143-491.657143 343.2a68.914286 68.914286 0 0 0 0 58.857143C128.685714 769.714286 292.457143 884.571429 512 884.571429c219.657143 0 383.314286-114.857143 491.657143-343.2 8.8-18.514286 8.8-40 0-58.857143zM512 802.285714c-184.342857 0-319.314286-93.485714-414.514286-290.285714C192.685714 315.2 327.657143 221.714286 512 221.714286c184.342857 0 319.314286 93.485714 414.514286 290.285714C831.428571 708.8 696.457143 802.285714 512 802.285714z m-4.571429-491.428571c-111.085714 0-201.142857 90.057143-201.142857 201.142857s90.057143 201.142857 201.142857 201.142857 201.142857-90.057143 201.142858-201.142857-90.057143-201.142857-201.142858-201.142857z m0 329.142857c-70.742857 0-128-57.257143-128-128s57.257143-128 128-128 128 57.257143 128 128-57.257143 128-128 128z" p-id="1322" fill="#6971C5"></path></svg>