
<svg width="40" height="40" viewBox="0 0 40 40" version="1.1" xmlns="http://www.w3.org/2000/svg" xmlns:xlink="http://www.w3.org/1999/xlink">
    <path d="M15,18 L15,15.4730304 C15.0021384,12.4518816 17.2389643,10.0031217 19.9993534,10 C22.7599524,10.0031205 24.9971489,12.4516526 25,15.4730304 C25,15.8638593 24.7105165,16.1806888 24.3534204,16.1806888 C23.9963244,16.1806888 23.7068408,15.8638593 23.7068408,15.4730304 C23.7047025,13.2329872 22.0460558,11.4176572 19.9993534,11.4153169 C17.9531561,11.4184369 16.2952961,13.233539 16.2931592,15.4730304 L16.2931592,18 L25.9916146,18 C27.09917,18 28,18.9013699 28,20.009589 L28,27.990411 C28,29.0986301 27.09917,30 25.9916146,30 L14.0070163,30 C12.8986633,29.9984893 12.000754,29.099429 12,27.990411 L12,20.009589 C12,18.9013699 12.90083,18 14.0070163,18 L15,18 Z M14.0070163,19.369863 C13.6544518,19.3706184 13.3690425,19.6568124 13.3690425,20.009589 L13.3690425,27.990411 C13.3690425,28.3438356 13.6551724,28.630137 14.0070163,28.630137 L25.9916146,28.630137 C26.3447139,28.630137 26.6309575,28.3437219 26.6309575,27.990411 L26.6309575,20.009589 C26.6309575,19.6562781 26.3447139,19.369863 25.9916146,19.369863 L14.0070163,19.369863 Z M20,26 C18.8954305,26 18,25.1045695 18,24 C18,22.8954305 18.8954305,22 20,22 C21.1045695,22 22,22.8954305 22,24 C22,25.1045695 21.1045695,26 20,26 Z M20,25 C20.5522847,25 21,24.5522847 21,24 C21,23.4477153 20.5522847,23 20,23 C19.4477153,23 19,23.4477153 19,24 C19,24.5522847 19.4477153,25 20,25 Z" id="Icon_password_def" fill="#6971C5"></path>
</svg>