
<svg width="40" height="40" viewBox="0 0 40 40" version="1.1" xmlns="http://www.w3.org/2000/svg" xmlns:xlink="http://www.w3.org/1999/xlink">
    <g id="Icon/Userid/Active" stroke="none" stroke-width="1" fill="none" fill-rule="evenodd">
        <g>
            <rect id="矩形" fill="#D8D8D8" opacity="0" x="0" y="0" width="40" height="40"></rect>
            <path d="M25.7548048,16.0996306 C25.7548048,12.7308732 23.1310854,10 19.8944648,10 C16.6579423,10 14.0342424,12.7308732 14.0342424,16.0996306 C14.0342424,18.3922682 15.2497035,20.3891098 17.0462396,21.4311667 C14.0899624,22.6542679 12,25.658895 12,29.1716754 C12,29.6291613 12.3563146,30 12.7958078,30 C13.235301,30 13.591498,29.6291613 13.591498,29.1716754 C13.5958851,25.4887467 16.4656934,22.5044115 20.0052978,22.5044115 C23.5052421,22.5044115 26.3499225,25.4225582 26.4171195,29.0487153 C26.4115768,29.0857367 26.4084236,29.1284665 26.4084236,29.1719463 C26.4084236,29.6291613 26.7646207,30 27.2041531,30 C27.6436462,30 28,29.6291613 28,29.1716754 C28,25.6096026 25.8508313,22.5699125 22.828591,21.3806868 C24.5779659,20.3253797 25.7548048,18.355601 25.7548048,16.0996306 Z M19.8944844,20.5647999 C17.525295,20.5647999 15.6046079,18.5656874 15.6046079,16.0996306 C15.6046079,13.6335738 17.525295,11.6344613 19.8944844,11.6344613 C22.2637718,11.6344613 24.1844393,13.6335738 24.1844393,16.0996306 C24.1844393,18.5655416 22.2637914,20.5647999 19.8944844,20.5647999 Z" fill="#6971C5" fill-rule="nonzero"></path>
        </g>
    </g>
</svg>